<svg xmlns="http://www.w3.org/2000/svg" width="400" height="200" viewBox="0 0 400 200">
  <rect width="400" height="200" fill="#0f172a"/>
  <rect x="240" y="-20" width="120" height="120" rx="20" fill="#38bdf8" opacity="0.08" transform="rotate(15 300 40)"/>
  <g transform="translate(24, 24)">
    <svg width="40" height="40" viewBox="0 0 24 24" fill="none" stroke="#38bdf8" stroke-width="1.5" stroke-linecap="round" stroke-linejoin="round">
      <path d="M12 3v2.25m6.364.386l-1.591 1.591M21 12h-2.25m-.386 6.364l-1.591-1.591M12 18.75V21m-4.773-4.227l-1.591 1.591M5.25 12H3m4.227-4.773L5.636 5.636M15.75 12a3.75 3.75 0 11-7.5 0 3.75 3.75 0 017.5 0z"/>
    </svg>
  </g>
  <text x="24" y="100" font-family="system-ui, -apple-system, sans-serif" font-size="11" font-weight="600" fill="#38bdf8" opacity="0.7" letter-spacing="2">MODULE 02</text>
  <text x="24" y="130" font-family="system-ui, -apple-system, sans-serif" font-size="20" font-weight="700" fill="white">HVAC Fundamentals</text>
  <rect x="24" y="145" width="40" height="3" rx="1.5" fill="#38bdf8" opacity="0.5"/>
</svg>