<svg xmlns="http://www.w3.org/2000/svg" width="400" height="200" viewBox="0 0 400 200">
  <rect width="400" height="200" fill="#1a2e05"/>
  <circle cx="300" cy="40" r="50" fill="#a3e635" opacity="0.07"/><circle cx="260" cy="80" r="30" fill="#a3e635" opacity="0.05"/>
  <g transform="translate(24, 24)">
    <svg width="40" height="40" viewBox="0 0 24 24" fill="none" stroke="#a3e635" stroke-width="1.5" stroke-linecap="round" stroke-linejoin="round">
      <path d="M20.25 7.5l-.625 10.632a2.25 2.25 0 01-2.247 2.118H6.622a2.25 2.25 0 01-2.247-2.118L3.75 7.5M10 11.25h4M3.375 7.5h17.25c.621 0 1.125-.504 1.125-1.125v-1.5c0-.621-.504-1.125-1.125-1.125H3.375c-.621 0-1.125.504-1.125 1.125v1.5c0 .621.504 1.125 1.125 1.125z"/>
    </svg>
  </g>
  <text x="24" y="100" font-family="system-ui, -apple-system, sans-serif" font-size="11" font-weight="600" fill="#a3e635" opacity="0.7" letter-spacing="2">MODULE 07</text>
  <text x="24" y="130" font-family="system-ui, -apple-system, sans-serif" font-size="20" font-weight="700" fill="white">EPA Type I</text>
  <rect x="24" y="145" width="40" height="3" rx="1.5" fill="#a3e635" opacity="0.5"/>
</svg>