<svg xmlns="http://www.w3.org/2000/svg" width="400" height="200" viewBox="0 0 400 200">
  <rect width="400" height="200" fill="#1e293b"/>
  <circle cx="280" cy="40" r="80" fill="#60a5fa" opacity="0.08"/>
  <g transform="translate(24, 24)">
    <svg width="40" height="40" viewBox="0 0 24 24" fill="none" stroke="#60a5fa" stroke-width="1.5" stroke-linecap="round" stroke-linejoin="round">
      <path d="M12 6.042A8.967 8.967 0 006 3.75c-1.052 0-2.062.18-3 .512v14.25A8.987 8.987 0 016 18c2.305 0 4.408.867 6 2.292m0-14.25a8.966 8.966 0 016-2.292c1.052 0 2.062.18 3 .512v14.25A8.987 8.987 0 0018 18a8.967 8.967 0 00-6 2.292m0-14.25v14.25"/>
    </svg>
  </g>
  <text x="24" y="100" font-family="system-ui, -apple-system, sans-serif" font-size="11" font-weight="600" fill="#60a5fa" opacity="0.7" letter-spacing="2">MODULE 01</text>
  <text x="24" y="130" font-family="system-ui, -apple-system, sans-serif" font-size="20" font-weight="700" fill="white">Orientation</text>
  <rect x="24" y="145" width="40" height="3" rx="1.5" fill="#60a5fa" opacity="0.5"/>
</svg>