<svg xmlns="http://www.w3.org/2000/svg" width="400" height="200" viewBox="0 0 400 200">
  <rect width="400" height="200" fill="#1e1b4b"/>
  <rect x="150" y="50" width="100" height="100" rx="10" fill="#a78bfa" opacity="0.06" transform="rotate(20 200 100)"/>
  <g transform="translate(24, 24)">
    <svg width="40" height="40" viewBox="0 0 24 24" fill="none" stroke="#a78bfa" stroke-width="1.5" stroke-linecap="round" stroke-linejoin="round">
      <path d="M20.25 14.15v4.25c0 1.094-.787 2.036-1.872 2.18-2.087.277-4.216.42-6.378.42s-4.291-.143-6.378-.42c-1.085-.144-1.872-1.086-1.872-2.18v-4.25m16.5 0a2.18 2.18 0 00.75-1.661V8.706c0-1.081-.768-2.015-1.837-2.175a48.114 48.114 0 00-3.413-.387m4.5 8.006c-.194.165-.42.295-.673.38A23.978 23.978 0 0112 15.75c-2.648 0-5.195-.429-7.577-1.22a2.016 2.016 0 01-.673-.38m0 0A2.18 2.18 0 013 12.489V8.706c0-1.081.768-2.015 1.837-2.175a48.111 48.111 0 013.413-.387m7.5 0V5.25A2.25 2.25 0 0013.5 3h-3a2.25 2.25 0 00-2.25 2.25v.894m7.5 0a48.667 48.667 0 00-7.5 0"/>
    </svg>
  </g>
  <text x="24" y="100" font-family="system-ui, -apple-system, sans-serif" font-size="11" font-weight="600" fill="#a78bfa" opacity="0.7" letter-spacing="2">MODULE 16</text>
  <text x="24" y="130" font-family="system-ui, -apple-system, sans-serif" font-size="20" font-weight="700" fill="white">Career Prep</text>
  <rect x="24" y="145" width="40" height="3" rx="1.5" fill="#a78bfa" opacity="0.5"/>
</svg>