<svg xmlns="http://www.w3.org/2000/svg" width="400" height="200" viewBox="0 0 400 200">
  <rect width="400" height="200" fill="#422006"/>
  <polygon points="200,0 400,100 200,200 0,100" fill="#fb923c" opacity="0.04"/>
  <g transform="translate(24, 24)">
    <svg width="40" height="40" viewBox="0 0 24 24" fill="none" stroke="#fb923c" stroke-width="1.5" stroke-linecap="round" stroke-linejoin="round">
      <path d="M11.42 15.17l-5.1-5.1a1.5 1.5 0 010-2.12l.88-.88a1.5 1.5 0 012.12 0l2.1 2.1 5.1-5.1a1.5 1.5 0 012.12 0l.88.88a1.5 1.5 0 010 2.12l-7.98 7.98a1.5 1.5 0 01-2.12 0zM3.75 21h16.5"/>
    </svg>
  </g>
  <text x="24" y="100" font-family="system-ui, -apple-system, sans-serif" font-size="11" font-weight="600" fill="#fb923c" opacity="0.7" letter-spacing="2">MODULE 12</text>
  <text x="24" y="130" font-family="system-ui, -apple-system, sans-serif" font-size="20" font-weight="700" fill="white">Installation</text>
  <rect x="24" y="145" width="40" height="3" rx="1.5" fill="#fb923c" opacity="0.5"/>
</svg>