<svg xmlns="http://www.w3.org/2000/svg" width="400" height="200" viewBox="0 0 400 200">
  <rect width="400" height="200" fill="#0c4a6e"/>
  <rect x="260" y="10" width="80" height="80" fill="#7dd3fc" opacity="0.06" transform="rotate(45 300 50)"/>
  <g transform="translate(24, 24)">
    <svg width="40" height="40" viewBox="0 0 24 24" fill="none" stroke="#7dd3fc" stroke-width="1.5" stroke-linecap="round" stroke-linejoin="round">
      <path d="M12 3v2m0 14v2m-7-9H3m18 0h-2M7.05 7.05L5.636 5.636m12.728 12.728L16.95 16.95M7.05 16.95l-1.414 1.414M18.364 5.636L16.95 7.05M14 12a2 2 0 11-4 0 2 2 0 014 0z"/>
    </svg>
  </g>
  <text x="24" y="100" font-family="system-ui, -apple-system, sans-serif" font-size="11" font-weight="600" fill="#7dd3fc" opacity="0.7" letter-spacing="2">MODULE 05</text>
  <text x="24" y="130" font-family="system-ui, -apple-system, sans-serif" font-size="20" font-weight="700" fill="white">Cooling & Refrigeration</text>
  <rect x="24" y="145" width="40" height="3" rx="1.5" fill="#7dd3fc" opacity="0.5"/>
</svg>