<svg xmlns="http://www.w3.org/2000/svg" width="400" height="200" viewBox="0 0 400 200">
  <rect width="400" height="200" fill="#064e3b"/>
  <path d="M0 120 Q100 80 200 120 T400 120 V200 H0Z" fill="#6ee7b7" opacity="0.05"/>
  <g transform="translate(24, 24)">
    <svg width="40" height="40" viewBox="0 0 24 24" fill="none" stroke="#6ee7b7" stroke-width="1.5" stroke-linecap="round" stroke-linejoin="round">
      <path d="M10.5 6h9.75M10.5 6a1.5 1.5 0 11-3 0m3 0a1.5 1.5 0 10-3 0M3.75 6H7.5m3 12h9.75m-9.75 0a1.5 1.5 0 01-3 0m3 0a1.5 1.5 0 00-3 0m-3.75 0H7.5m9-6h3.75m-3.75 0a1.5 1.5 0 01-3 0m3 0a1.5 1.5 0 00-3 0m-9.75 0h9.75"/>
    </svg>
  </g>
  <text x="24" y="100" font-family="system-ui, -apple-system, sans-serif" font-size="11" font-weight="600" fill="#6ee7b7" opacity="0.7" letter-spacing="2">MODULE 09</text>
  <text x="24" y="130" font-family="system-ui, -apple-system, sans-serif" font-size="20" font-weight="700" fill="white">EPA Type III</text>
  <rect x="24" y="145" width="40" height="3" rx="1.5" fill="#6ee7b7" opacity="0.5"/>
</svg>