<svg xmlns="http://www.w3.org/2000/svg" width="400" height="200" viewBox="0 0 400 200">
  <rect width="400" height="200" fill="#172554"/>
  <rect x="-20" y="100" width="200" height="100" rx="50" fill="#93c5fd" opacity="0.05" transform="rotate(-10 80 150)"/>
  <g transform="translate(24, 24)">
    <svg width="40" height="40" viewBox="0 0 24 24" fill="none" stroke="#93c5fd" stroke-width="1.5" stroke-linecap="round" stroke-linejoin="round">
      <path d="M9.75 3.104v5.714a2.25 2.25 0 01-.659 1.591L5 14.5M9.75 3.104c-.251.023-.501.05-.75.082m.75-.082a24.301 24.301 0 014.5 0m0 0v5.714c0 .597.237 1.17.659 1.591L19.8 15.3M14.25 3.104c.251.023.501.05.75.082M19.8 15.3l-1.57.393A9.065 9.065 0 0112 15a9.065 9.065 0 00-6.23.693L5 14.5"/>
    </svg>
  </g>
  <text x="24" y="100" font-family="system-ui, -apple-system, sans-serif" font-size="11" font-weight="600" fill="#93c5fd" opacity="0.7" letter-spacing="2">MODULE 11</text>
  <text x="24" y="130" font-family="system-ui, -apple-system, sans-serif" font-size="20" font-weight="700" fill="white">Refrigerant Handling</text>
  <rect x="24" y="145" width="40" height="3" rx="1.5" fill="#93c5fd" opacity="0.5"/>
</svg>